<mxfile host="app.diagrams.net" modified="2024-03-03T07:49:07.600Z" agent="Mozilla/5.0 (Windows NT 10.0; Win64; x64) AppleWebKit/537.36 (KHTML, like Gecko) Chrome/122.0.0.0 Safari/537.36 Edg/122.0.0.0" version="24.0.1" etag="5bvjNUdOqh5-T_64EkwD" type="github">
  <diagram name="Страница — 1" id="-p3ayEkKGE7CmvS7KcsF">
    <mxGraphModel>
      <root>
        <mxCell id="0" />
        <mxCell id="1" parent="0" />
      </root>
    </mxGraphModel>
  </diagram>
</mxfile>
